HIERARCHY
ROOT Hips
{
	OFFSET 0.000000 0.000000 0.000000
	CHANNELS 6 Xposition Yposition Zposition Xrotation Yrotation Zrotation
	JOINT LeftUpLeg_virtual
	{
		OFFSET 0.000000 0.000000 0.000000
		CHANNELS 3 Xrotation Yrotation Zrotation
		JOINT LeftUpLeg
		{
			OFFSET 15.427100 -6.655098 0.678600
			CHANNELS 3 Xrotation Yrotation Zrotation
			JOINT LeftLeg
			{
				OFFSET 4.081073 -39.591068 13.024000
				CHANNELS 3 Xrotation Yrotation Zrotation
				JOINT LeftFoot
				{
					OFFSET -4.081074 -37.707932 -15.979700
					CHANNELS 3 Xrotation Yrotation Zrotation
					JOINT LeftToeBase
					{
						OFFSET 5.346399 -15.068900 20.645000
						CHANNELS 3 Xrotation Yrotation Zrotation
						JOINT LeftToe_End
						{
							OFFSET 2.754700 0.931300 11.300900
							CHANNELS 3 Xrotation Yrotation Zrotation
							End Site
							{
								OFFSET 0 0 0
							}
						}
					}
				}
			}
		}
	}
	JOINT RightUpLeg_virtual
	{
		OFFSET 0.000000 0.000000 0.000000
		CHANNELS 3 Xrotation Yrotation Zrotation
		JOINT RightUpLeg
		{
			OFFSET -15.569500 -6.655098 0.678600
			CHANNELS 3 Xrotation Yrotation Zrotation
			JOINT RightLeg
			{
				OFFSET -4.081825 -39.591045 13.023800
				CHANNELS 3 Xrotation Yrotation Zrotation
				JOINT RightFoot
				{
					OFFSET 4.081824 -37.707954 -15.979600
					CHANNELS 3 Xrotation Yrotation Zrotation
					JOINT RightToeBase
					{
						OFFSET -5.346400 -15.068900 20.645000
						CHANNELS 3 Xrotation Yrotation Zrotation
						JOINT RightToe_End
						{
							OFFSET -2.754700 0.931300 11.300900
							CHANNELS 3 Xrotation Yrotation Zrotation
							End Site
							{
								OFFSET 0 0 0
							}
						}
					}
				}
			}
		}
	}
	JOINT Spine_virtual
	{
		OFFSET 0.000000 0.000000 0.000000
		CHANNELS 3 Xrotation Yrotation Zrotation
		JOINT Spine
		{
			OFFSET -0.279200 12.230698 -2.892100
			CHANNELS 3 Xrotation Yrotation Zrotation
			JOINT Spine1
			{
				OFFSET -0.232667 10.192268 -1.242267
				CHANNELS 3 Xrotation Yrotation Zrotation
				JOINT Spine1_split
				{
					OFFSET -0.232667 10.192268 -1.242267
					CHANNELS 3 Xrotation Yrotation Zrotation
					JOINT Spine2
					{
						OFFSET -0.232667 10.192268 -1.242267
						CHANNELS 3 Xrotation Yrotation Zrotation
						JOINT Neck_virtual
						{
							OFFSET 0.000000 0.000000 0.000000
							CHANNELS 3 Xrotation Yrotation Zrotation
							JOINT Neck
							{
								OFFSET -0.418800 17.814194 8.416900
								CHANNELS 3 Xrotation Yrotation Zrotation
								JOINT Head
								{
									OFFSET 0.000000 7.031097 3.806800
									CHANNELS 3 Xrotation Yrotation Zrotation
									JOINT HeadTop_End
									{
										OFFSET 0.000000 24.646606 12.978600
										CHANNELS 3 Xrotation Yrotation Zrotation
										End Site
										{
											OFFSET 0 0 0
										}
									}
								}
							}
						}
						JOINT LeftShoulder_virtual
						{
							OFFSET 0.000000 0.000000 0.000000
							CHANNELS 3 Xrotation Yrotation Zrotation
							JOINT LeftShoulder
							{
								OFFSET 8.476499 7.247704 -3.868750
								CHANNELS 3 Xrotation Yrotation Zrotation
								JOINT LeftShoulder_split
								{
									OFFSET 8.476499 7.247704 -3.868750
									CHANNELS 3 Xrotation Yrotation Zrotation
									JOINT LeftArm
									{
										OFFSET 9.308998 -2.777710 0.208600
										CHANNELS 3 Xrotation Yrotation Zrotation
										JOINT LeftForeArm
										{
											OFFSET 29.972298 0.000000 0.000000
											CHANNELS 3 Xrotation Yrotation Zrotation
											JOINT LeftHand
											{
												OFFSET 26.026505 0.000000 0.000000
												CHANNELS 3 Xrotation Yrotation Zrotation
												End Site
												{
													OFFSET 0 0 0
												}
											}
										}
									}
								}
							}
						}
						JOINT RightShoulder_virtual
						{
							OFFSET 0.000000 0.000000 0.000000
							CHANNELS 3 Xrotation Yrotation Zrotation
							JOINT RightShoulder
							{
								OFFSET -7.570500 7.247704 -3.868750
								CHANNELS 3 Xrotation Yrotation Zrotation
								JOINT RightShoulder_split
								{
									OFFSET -7.570500 7.247704 -3.868750
									CHANNELS 3 Xrotation Yrotation Zrotation
									JOINT RightArm
									{
										OFFSET -9.308998 -2.777710 0.208500
										CHANNELS 3 Xrotation Yrotation Zrotation
										JOINT RightForeArm
										{
											OFFSET -29.972300 0.000000 0.000000
											CHANNELS 3 Xrotation Yrotation Zrotation
											JOINT RightHand
											{
												OFFSET -26.026505 0.000000 0.000000
												CHANNELS 3 Xrotation Yrotation Zrotation
												End Site
												{
													OFFSET 0 0 0
												}
											}
										}
									}
								}
							}
						}
					}
				}
			}
		}
	}
}
MOTION
Frames: 4
Frame Time: 0.03333333
10.858770 59.981823 52.770916 0.000000 0.000000 0.000000 -10.043903 -30.097051 -5.971893 -53.898887 -14.379157 27.720536 64.225942 -8.040541 6.175842 8.781842 0.992292 -34.258101 -7.503857 -5.288109 5.808333 0.000000 0.000000 0.000000 -10.836717 -28.570371 -6.269986 -31.053394 -10.863039 -43.661977 73.472584 27.227144 -13.600152 -0.509469 -28.259634 36.223956 -11.434058 13.033326 -12.603256 0.000000 0.000000 0.000000 -7.420265 -26.772602 -6.500705 16.769636 7.084538 -8.649961 2.364085 -1.034507 1.278818 0.287143 -1.369906 0.196550 0.000000 0.000000 0.000000 9.670023 1.088429 2.564759 10.816150 22.849028 8.454588 -5.371183 11.905681 -32.730202 0.000000 0.000000 0.000000 5.359664 -1.129128 1.449742 1.288058 -6.228486 -3.076997 6.966847 -6.257436 2.807626 -64.027313 15.453732 -35.641908 174.712892 -66.263907 173.243773 0.000000 0.000000 0.000000 4.974845 -2.486501 1.001463 0.638258 7.180383 -8.459567 -11.550310 -0.349199 -4.848731 -40.313788 20.433783 86.256389 -142.733182 70.363926 141.950742 0.000000 0.000000 0.000000 
10.098934 61.397717 49.512691 0.000000 0.000000 0.000000 -9.374507 -30.211204 -4.861253 -53.068254 -12.955760 26.457501 58.554085 -6.614697 7.905325 12.035602 0.757339 -36.196929 -7.513795 -5.944334 6.195201 0.000000 0.000000 0.000000 -11.693799 -29.079674 -5.461463 -26.304549 -13.070153 -40.939338 72.469256 26.468784 -15.181045 -11.517356 -30.105596 38.549239 -5.140563 13.363154 -16.645540 0.000000 0.000000 0.000000 -8.568003 -28.160300 -5.975469 14.559989 7.885289 -7.669217 2.460404 -1.115392 0.711839 0.107790 -1.091408 0.179756 0.000000 0.000000 0.000000 9.393365 0.924447 2.010753 11.482991 21.831033 7.996556 -6.006150 8.241379 -33.196116 0.000000 0.000000 0.000000 5.563919 -1.287148 0.872804 0.940282 -3.263861 -3.090835 7.799162 -7.493739 4.431969 -63.079618 17.055667 -37.887913 172.606940 -67.537232 170.407660 0.000000 0.000000 0.000000 5.122556 -2.679876 0.554289 0.404546 7.782951 -8.265497 -11.833459 0.091757 -5.715040 -40.872286 20.967929 87.008789 -138.676637 70.864811 137.919797 0.000000 0.000000 0.000000 
9.374167 63.272087 46.212334 0.000000 0.000000 0.000000 -7.807940 -29.369817 -3.181713 -53.762512 -10.516041 26.015231 53.073367 -5.909448 8.908309 15.618320 -0.348276 -37.866654 -4.437796 -6.183522 6.174836 0.000000 0.000000 0.000000 -10.671907 -28.495401 -3.853041 -22.264163 -14.681749 -37.940407 70.302488 25.146774 -15.682099 -21.150079 -32.746106 37.496161 4.097395 12.549598 -19.157180 0.000000 0.000000 0.000000 -8.890992 -28.435850 -5.047346 12.683144 8.219912 -6.955061 2.436053 -1.236692 0.158375 -0.009235 -0.640908 0.119171 0.000000 0.000000 0.000000 8.832352 0.779155 1.363956 12.149099 20.578515 7.820612 -6.496359 4.170759 -33.581247 0.000000 0.000000 0.000000 5.640482 -1.446696 0.399892 0.661539 -0.744209 -2.671096 8.771288 -8.576528 5.343073 -62.898440 17.384254 -40.247986 172.047725 -68.884268 169.396560 0.000000 0.000000 0.000000 5.057567 -2.794334 0.168025 0.020283 8.096095 -8.619548 -10.862408 1.485844 -5.399336 -41.248773 20.578701 87.704410 -137.759752 70.603331 136.478067 0.000000 0.000000 0.000000 
8.669608 65.257362 43.073669 0.000000 0.000000 0.000000 -5.833454 -28.563008 -1.432983 -54.552745 -6.713700 26.211418 48.776464 -5.810062 8.967567 17.768874 -1.683046 -38.005119 -1.921700 -6.504098 7.070330 0.000000 0.000000 0.000000 -7.867167 -27.461259 -1.891980 -19.036036 -16.180653 -34.495536 67.022222 23.289389 -14.910955 -28.479522 -34.955880 33.532271 8.087689 12.089837 -19.928892 0.000000 0.000000 0.000000 -8.376133 -27.885316 -3.838553 11.388039 8.070957 -6.685040 2.318508 -1.382167 -0.275976 0.002222 -0.211047 0.086354 0.000000 0.000000 0.000000 8.098628 0.703168 0.798039 12.596202 19.212344 7.938218 -7.394547 0.417943 -34.119035 0.000000 0.000000 0.000000 5.530579 -1.577926 0.110909 0.422106 1.008852 -1.916228 9.660157 -8.890856 5.292759 -63.753915 16.974335 -42.220200 172.544567 -70.396608 169.732168 0.000000 0.000000 0.000000 4.717596 -2.789299 -0.046236 -0.496877 8.160074 -9.447328 -8.728001 2.734358 -3.938580 -42.075768 19.427478 88.202891 -140.093163 69.865800 137.860675 0.000000 0.000000 0.000000 
